<svg width="24" height="25" viewBox="0 0 24 25" fill="none" xmlns="http://www.w3.org/2000/svg">
<path d="M2 3.04297H8C9.06087 3.04297 10.0783 3.4644 10.8284 4.21454C11.5786 4.96469 12 5.9821 12 7.04297V21.043C12 20.2473 11.6839 19.4843 11.1213 18.9216C10.5587 18.359 9.79565 18.043 9 18.043H2V3.04297Z" stroke="#FFB800" stroke-width="2" stroke-linecap="round" stroke-linejoin="round"/>
<path d="M22 3.04297H16C14.9391 3.04297 13.9217 3.4644 13.1716 4.21454C12.4214 4.96469 12 5.9821 12 7.04297V21.043C12 20.2473 12.3161 19.4843 12.8787 18.9216C13.4413 18.359 14.2044 18.043 15 18.043H22V3.04297Z" stroke="#FFB800" stroke-width="2" stroke-linecap="round" stroke-linejoin="round"/>
</svg>
